<svg width="24" height="26" viewBox="0 0 24 26" fill="none" xmlns="http://www.w3.org/2000/svg">
<path d="M12.9192 20.3147L11.9863 21.2476L6.97854 20.0392L8.15313 25.0808L7.28306 25.9509L5.93928 19.9087L0.37565 18.7244L1.28439 17.8157L5.83777 18.8598L4.80819 14.2919L5.68309 13.417L6.83836 18.9516L12.9192 20.3147ZM6.87219 12.2279L7.64076 11.4593L11.5706 15.3892C12.2956 16.1142 12.9289 16.7925 13.4702 17.4242L13.5089 17.3855L11.5754 7.52466L12.4745 6.62559L19.5414 13.6925L18.768 14.4659L14.8769 10.5748C14.2291 9.92703 13.5766 9.21969 12.9192 8.45274L12.8757 8.49624L14.8382 18.3957L13.9391 19.2948L6.87219 12.2279ZM23.6549 9.579L22.8332 10.4007L16.4962 4.06371L14.2581 6.30173L13.5283 5.57183L18.826 0.274056L19.5559 1.00395L17.3179 3.24197L23.6549 9.579Z" fill="white"/>
</svg>
