<svg width="24" height="26" viewBox="0 0 24 26" fill="none" xmlns="http://www.w3.org/2000/svg">
<path d="M12.9192 20.2229L11.9863 21.1558L6.97854 19.9474L8.15313 24.989L7.28306 25.8591L5.93928 19.8169L0.37565 18.6326L1.28439 17.7239L5.83777 18.768L4.80819 14.2001L5.68309 13.3252L6.83836 18.8598L12.9192 20.2229ZM6.87219 12.1361L7.64076 11.3675L11.5706 15.2974C12.2956 16.0224 12.9289 16.7008 13.4702 17.3324L13.5089 17.2937L11.5754 7.43287L12.4745 6.53379L19.5414 13.6007L18.768 14.3741L14.8769 10.483C14.2291 9.83523 13.5766 9.1279 12.9192 8.36094L12.8757 8.40445L14.8382 18.3039L13.9391 19.203L6.87219 12.1361ZM23.6549 9.4872L22.8332 10.3089L16.4962 3.97191L14.2581 6.20993L13.5283 5.48004L18.826 0.182259L19.5559 0.912154L17.3179 3.15017L23.6549 9.4872Z" fill="white"/>
</svg>
